#define 96wellsystem_width 300
#define 96wellsystem_height 200
static char 96wellsystem_bits[] = {
  0x00, 0x00, 0x00, 0x00, 0x00, 0x00, 0x00, 0x00, 0x00, 0x00, 0x00, 0x00, 
  0x00, 0x00, 0x00, 0x00, 0x00, 0x00, 0x00, 0x00, 0x00, 0x00, 0x00, 0x00, 
  0x00, 0x00, 0x00, 0x00, 0x00, 0x00, 0x00, 0x00, 0x00, 0x00, 0x00, 0x00, 
  0x00, 0x00, 0x00, 0x00, 0x00, 0x00, 0x00, 0x00, 0x00, 0x00, 0x00, 0x00, 
  0x00, 0x00, 0x00, 0x00, 0x00, 0x00, 0x00, 0x00, 0x00, 0x00, 0x00, 0x00, 
  0x00, 0x00, 0x00, 0x00, 0x00, 0x00, 0x00, 0x00, 0x00, 0x00, 0x00, 0x00, 
  0x00, 0x00, 0x00, 0x00, 0x00, 0x00, 0x00, 0x00, 0x00, 0x00, 0x00, 0x00, 
  0x00, 0x00, 0x00, 0x00, 0x00, 0x00, 0x00, 0x00, 0x00, 0x00, 0x00, 0x00, 
  0x00, 0x00, 0x00, 0x00, 0x00, 0x00, 0x00, 0x00, 0x00, 0x00, 0x00, 0x00, 
  0x00, 0x00, 0x00, 0x00, 0x00, 0x00, 0x00, 0x00, 0x00, 0x00, 0x00, 0x00, 
  0x00, 0x00, 0x00, 0x00, 0x00, 0x00, 0x00, 0x00, 0x00, 0x00, 0x00, 0x00, 
  0x00, 0x00, 0x00, 0x00, 0x00, 0x00, 0x00, 0x00, 0x00, 0x00, 0x00, 0x00, 
  0x00, 0x00, 0x00, 0x00, 0x00, 0x00, 0x00, 0x00, 0x00, 0x00, 0x00, 0x00, 
  0x00, 0x00, 0x00, 0x00, 0x00, 0x00, 0x00, 0x00, 0x00, 0x00, 0x00, 0x00, 
  0x00, 0x00, 0x00, 0x00, 0x00, 0x00, 0x00, 0x00, 0x00, 0x00, 0x00, 0x00, 
  0x00, 0x00, 0x00, 0x00, 0x00, 0x00, 0x00, 0x00, 0x00, 0x00, 0x00, 0x00, 
  0x00, 0x00, 0x00, 0x00, 0x00, 0x00, 0x00, 0x00, 0x00, 0x00, 0x00, 0x00, 
  0x00, 0x00, 0x00, 0x00, 0x00, 0x00, 0x00, 0x00, 0x00, 0x00, 0x00, 0x00, 
  0x00, 0x00, 0x00, 0x00, 0x00, 0x00, 0x00, 0x00, 0x00, 0x00, 0x00, 0x00, 
  0x00, 0x00, 0x00, 0x00, 0x00, 0x00, 0x00, 0x00, 0x00, 0x00, 0x00, 0x00, 
  0x00, 0x00, 0x00, 0x00, 0x00, 0x00, 0x00, 0x00, 0x00, 0x00, 0x00, 0x00, 
  0x00, 0x00, 0x00, 0x00, 0x00, 0x00, 0x00, 0x00, 0x00, 0x00, 0x00, 0x00, 
  0x00, 0x00, 0x00, 0x00, 0x00, 0x00, 0x00, 0x00, 0x00, 0x00, 0x00, 0x00, 
  0x00, 0x00, 0x00, 0x00, 0x00, 0x00, 0x00, 0x00, 0x00, 0x00, 0x00, 0x00, 
  0x00, 0x00, 0x00, 0x00, 0x00, 0x00, 0x00, 0x00, 0x00, 0x00, 0x00, 0x00, 
  0x00, 0x00, 0x00, 0x00, 0x00, 0x00, 0x00, 0x00, 0x00, 0x00, 0x00, 0x00, 
  0x00, 0x00, 0x00, 0x00, 0x00, 0x00, 0x00, 0x00, 0x00, 0x00, 0x00, 0x00, 
  0x00, 0x00, 0x00, 0x00, 0x00, 0x00, 0x00, 0x00, 0x00, 0x00, 0x00, 0x00, 
  0x00, 0x00, 0x00, 0x00, 0x00, 0x00, 0x00, 0x00, 0x00, 0x00, 0x00, 0x00, 
  0x00, 0x00, 0x00, 0x00, 0x00, 0x00, 0x00, 0x00, 0x00, 0x00, 0x00, 0x00, 
  0x00, 0x00, 0x00, 0x00, 0x00, 0x00, 0x00, 0x00, 0x00, 0x00, 0x00, 0x00, 
  0x00, 0x00, 0x00, 0x00, 0x00, 0x00, 0x00, 0x00, 0x00, 0x00, 0x00, 0x00, 
  0x00, 0x00, 0x04, 0x00, 0xF0, 0x00, 0x00, 0x0F, 0x00, 0x40, 0x00, 0x00, 
  0x0F, 0x00, 0xF0, 0x00, 0x80, 0x0F, 0x00, 0xF0, 0x00, 0x00, 0x0F, 0x00, 
  0x88, 0x03, 0xC0, 0x20, 0x00, 0x8C, 0x03, 0x00, 0x00, 0x00, 0x00, 0x00, 
  0x00, 0x00, 0x00, 0x00, 0x07, 0x00, 0xD0, 0x00, 0x80, 0x09, 0x00, 0xE0, 
  0x00, 0x00, 0x01, 0x00, 0xD0, 0x00, 0x00, 0x08, 0x00, 0xD0, 0x00, 0x80, 
  0x0D, 0x00, 0xCE, 0x06, 0xE0, 0x38, 0x00, 0x8E, 0x06, 0x00, 0x00, 0x00, 
  0x00, 0x00, 0x00, 0x00, 0x00, 0x00, 0x07, 0x00, 0x98, 0x00, 0x00, 0x0D, 
  0x00, 0xE0, 0x00, 0x80, 0x0F, 0x00, 0x18, 0x00, 0x00, 0x04, 0x00, 0xD0, 
  0x00, 0x80, 0x09, 0x00, 0xCE, 0x04, 0xC0, 0x30, 0x00, 0xCC, 0x04, 0x00, 
  0x00, 0x00, 0x00, 0x00, 0x00, 0x00, 0x00, 0x00, 0x06, 0x00, 0xC0, 0x00, 
  0x00, 0x0E, 0x00, 0x50, 0x00, 0x00, 0x0D, 0x00, 0xF8, 0x00, 0x00, 0x06, 
  0x00, 0xF0, 0x00, 0x80, 0x0D, 0x00, 0x48, 0x04, 0xC0, 0x30, 0x00, 0x0C, 
  0x06, 0x00, 0x00, 0x00, 0x00, 0x00, 0x00, 0x00, 0x00, 0x00, 0x06, 0x00, 
  0x60, 0x00, 0x00, 0x08, 0x00, 0xD8, 0x00, 0x00, 0x08, 0x00, 0xD8, 0x00, 
  0x00, 0x06, 0x00, 0x98, 0x00, 0x00, 0x0F, 0x00, 0xCC, 0x04, 0xC0, 0x30, 
  0x00, 0x0C, 0x03, 0x00, 0x00, 0x00, 0x00, 0x00, 0x00, 0x00, 0x00, 0x00, 
  0x06, 0x00, 0x30, 0x00, 0x80, 0x08, 0x00, 0xF8, 0x00, 0x00, 0x09, 0x00, 
  0x98, 0x00, 0x00, 0x02, 0x00, 0x98, 0x00, 0x00, 0x08, 0x00, 0xCC, 0x04, 
  0xC0, 0x30, 0x00, 0x8C, 0x01, 0x00, 0x00, 0x00, 0x00, 0x00, 0x00, 0x00, 
  0x00, 0x00, 0x06, 0x00, 0x18, 0x00, 0x80, 0x0D, 0x00, 0xC0, 0x00, 0x80, 
  0x0D, 0x00, 0x90, 0x00, 0x00, 0x02, 0x00, 0xD8, 0x00, 0x80, 0x0D, 0x00, 
  0x8C, 0x06, 0xC0, 0x30, 0x00, 0xCC, 0x00, 0x00, 0x00, 0x00, 0x00, 0x00, 
  0x00, 0x00, 0x00, 0x00, 0x06, 0x00, 0xF8, 0x00, 0x00, 0x07, 0x00, 0x40, 
  0x00, 0x00, 0x07, 0x00, 0xF0, 0x00, 0x00, 0x03, 0x00, 0x70, 0x00, 0x00, 
  0x07, 0x00, 0x8C, 0x03, 0xC0, 0x30, 0x00, 0xCC, 0x07, 0x00, 0x00, 0x00, 
  0x00, 0x00, 0x00, 0x00, 0x00, 0x00, 0x00, 0x00, 0x00, 0x00, 0x00, 0x00, 
  0x00, 0x00, 0x00, 0x00, 0x00, 0x00, 0x00, 0x00, 0x00, 0x00, 0x00, 0x00, 
  0x00, 0x00, 0x00, 0x00, 0x00, 0x00, 0x00, 0x00, 0x00, 0x00, 0x00, 0x00, 
  0x00, 0x00, 0x00, 0x00, 0x00, 0x00, 0x00, 0x00, 0x00, 0x00, 0x00, 0x00, 
  0x00, 0x00, 0x00, 0x00, 0x00, 0x00, 0x00, 0x00, 0x00, 0x00, 0x00, 0x00, 
  0x00, 0x00, 0x00, 0x00, 0x00, 0x00, 0x00, 0x00, 0x00, 0x00, 0x00, 0x00, 
  0x00, 0x00, 0x00, 0x00, 0x00, 0x00, 0x00, 0x00, 0x00, 0x00, 0x00, 0x00, 
  0x00, 0x00, 0x00, 0x00, 0x00, 0x00, 0x00, 0x00, 0x00, 0x00, 0x00, 0x00, 
  0x00, 0x00, 0x00, 0x00, 0x00, 0x00, 0x00, 0x00, 0x00, 0x00, 0x00, 0x00, 
  0x00, 0x00, 0x00, 0x00, 0x00, 0x00, 0x00, 0x00, 0x00, 0x00, 0x00, 0x00, 
  0x00, 0x00, 0x00, 0x00, 0x00, 0x00, 0x00, 0x00, 0x00, 0x00, 0x00, 0x00, 
  0x00, 0x00, 0x00, 0x00, 0x00, 0x00, 0x00, 0x00, 0x00, 0x00, 0x00, 0x00, 
  0x00, 0x00, 0x00, 0x00, 0x00, 0x00, 0x00, 0x00, 0x00, 0x00, 0x00, 0x00, 
  0x00, 0x00, 0x00, 0x00, 0x00, 0x00, 0x00, 0x00, 0x00, 0x00, 0x00, 0x00, 
  0x00, 0x00, 0x00, 0x00, 0x00, 0x00, 0x00, 0x00, 0x00, 0x00, 0x00, 0x00, 
  0x00, 0x00, 0x00, 0x00, 0x00, 0x00, 0x00, 0x00, 0x00, 0x00, 0x00, 0x00, 
  0x00, 0x00, 0x00, 0x00, 0x00, 0x00, 0x00, 0x00, 0x00, 0x00, 0x00, 0x00, 
  0x00, 0x00, 0x00, 0x00, 0x00, 0x00, 0x00, 0x00, 0x00, 0x00, 0x00, 0x00, 
  0x00, 0x00, 0x00, 0x00, 0x00, 0x00, 0x00, 0x00, 0x00, 0x00, 0x00, 0x00, 
  0x00, 0x00, 0x00, 0x00, 0x00, 0x00, 0x00, 0x00, 0x00, 0x00, 0x00, 0x00, 
  0x00, 0x00, 0x00, 0x00, 0x00, 0x00, 0x00, 0x00, 0x00, 0x00, 0x00, 0x00, 
  0x00, 0x00, 0x00, 0x00, 0x00, 0x00, 0x00, 0x00, 0x00, 0x00, 0x00, 0x00, 
  0x00, 0x00, 0x00, 0x00, 0x00, 0x00, 0x00, 0x00, 0x00, 0x00, 0x00, 0x00, 
  0x00, 0x00, 0x00, 0x00, 0x00, 0x00, 0x00, 0x00, 0x00, 0x00, 0x00, 0x00, 
  0x00, 0x00, 0x00, 0x00, 0x00, 0x00, 0x00, 0x00, 0x00, 0x00, 0x00, 0x00, 
  0x00, 0x00, 0x00, 0x00, 0x00, 0x00, 0x00, 0x00, 0x00, 0x00, 0x00, 0x00, 
  0x00, 0x00, 0x00, 0x00, 0x00, 0x00, 0x00, 0x00, 0x00, 0x00, 0x00, 0x00, 
  0x00, 0x00, 0x00, 0x00, 0x00, 0x00, 0x00, 0x00, 0x00, 0x00, 0x00, 0x00, 
  0x00, 0x00, 0x00, 0x00, 0x00, 0x00, 0x00, 0x00, 0x00, 0x00, 0x00, 0x00, 
  0x00, 0x00, 0x00, 0x00, 0x00, 0x00, 0x00, 0x00, 0x00, 0x00, 0x00, 0x00, 
  0x00, 0x00, 0x00, 0x00, 0x00, 0x00, 0x00, 0x00, 0x00, 0x00, 0x00, 0x00, 
  0x00, 0x00, 0x00, 0x00, 0x00, 0x00, 0x00, 0x00, 0x00, 0x00, 0x00, 0x00, 
  0x00, 0x00, 0x00, 0x00, 0x00, 0x00, 0x00, 0x00, 0x00, 0x00, 0x00, 0x00, 
  0x00, 0x00, 0x00, 0x00, 0x00, 0x00, 0x00, 0x00, 0x00, 0x00, 0x00, 0x00, 
  0x00, 0x00, 0x00, 0x00, 0x00, 0x00, 0x00, 0x00, 0x00, 0x00, 0x00, 0x00, 
  0x00, 0xC0, 0xFF, 0xFF, 0xFF, 0xFF, 0xFF, 0xFF, 0xFF, 0xFF, 0xFF, 0xFF, 
  0xFF, 0xFF, 0xFF, 0xFF, 0xFF, 0xFF, 0xFF, 0xFF, 0xFF, 0xFF, 0xFF, 0xFF, 
  0xFF, 0xFF, 0xFF, 0xFF, 0xFF, 0xFF, 0xFF, 0xFF, 0xFF, 0xFF, 0x03, 0x00, 
  0x00, 0x00, 0x00, 0xE0, 0xFF, 0xFF, 0xFF, 0xFF, 0xFF, 0xFF, 0xFF, 0xFF, 
  0xFF, 0xFF, 0xFF, 0xFF, 0xFF, 0xFF, 0xFF, 0xFF, 0xFF, 0xFF, 0xFF, 0xFF, 
  0xFF, 0xFF, 0xFF, 0xFF, 0xFF, 0xFF, 0xFF, 0xFF, 0xFF, 0xFF, 0xFF, 0xFF, 
  0x07, 0x00, 0x00, 0x00, 0x00, 0x60, 0x00, 0x00, 0x00, 0x00, 0x00, 0x00, 
  0x00, 0x00, 0x00, 0x00, 0x00, 0x00, 0x00, 0x00, 0x00, 0x00, 0x00, 0x00, 
  0x00, 0x00, 0x00, 0x00, 0x00, 0x00, 0x00, 0x00, 0x00, 0x00, 0x00, 0x00, 
  0x00, 0x00, 0x06, 0x00, 0x00, 0x00, 0x00, 0x60, 0x00, 0x00, 0x00, 0x00, 
  0x00, 0x00, 0x00, 0x00, 0x00, 0x00, 0x00, 0x00, 0x00, 0x00, 0x00, 0x00, 
  0x00, 0x00, 0x00, 0x00, 0x00, 0x00, 0x00, 0x00, 0x00, 0x00, 0x00, 0x00, 
  0x00, 0x00, 0x00, 0x00, 0x06, 0x00, 0x00, 0x00, 0x00, 0x60, 0x00, 0x00, 
  0x00, 0x00, 0x00, 0x00, 0x00, 0x00, 0x00, 0x00, 0x00, 0x00, 0x00, 0x00, 
  0x00, 0x00, 0x00, 0x00, 0x00, 0x00, 0x00, 0x00, 0x00, 0x00, 0x00, 0x00, 
  0x00, 0x00, 0x00, 0x00, 0x00, 0x00, 0x06, 0x00, 0x00, 0x00, 0x00, 0x60, 
  0x00, 0x00, 0x00, 0x00, 0x00, 0x00, 0x00, 0x00, 0x00, 0x00, 0x00, 0x00, 
  0x00, 0x00, 0x00, 0x00, 0x00, 0x00, 0x00, 0x00, 0x00, 0x00, 0x00, 0x00, 
  0x00, 0x00, 0x00, 0x00, 0x00, 0x00, 0x00, 0x00, 0x06, 0x00, 0x00, 0x00, 
  0x00, 0x60, 0x00, 0x00, 0x00, 0x00, 0x00, 0x00, 0x00, 0x00, 0x00, 0x00, 
  0x00, 0x00, 0x00, 0x00, 0x00, 0x00, 0x00, 0x00, 0x00, 0x00, 0x00, 0x00, 
  0x00, 0x00, 0x00, 0x00, 0x00, 0x00, 0x00, 0x00, 0x00, 0x00, 0x06, 0x00, 
  0x00, 0x00, 0x00, 0x60, 0x00, 0x00, 0x00, 0x00, 0x00, 0x00, 0x00, 0x00, 
  0x00, 0x00, 0x00, 0x00, 0x00, 0x00, 0x00, 0x00, 0x00, 0x00, 0x00, 0x00, 
  0x00, 0x00, 0x00, 0x00, 0x00, 0x00, 0x00, 0x00, 0x00, 0x00, 0x00, 0x00, 
  0x06, 0x00, 0x00, 0x00, 0x00, 0x60, 0x00, 0xC0, 0x1F, 0x00, 0xF8, 0x00, 
  0x80, 0x1F, 0x00, 0xF8, 0x01, 0x80, 0x1F, 0x00, 0xF8, 0x01, 0x80, 0x1F, 
  0x00, 0xF8, 0x01, 0x80, 0x1F, 0x00, 0xF8, 0x03, 0x80, 0x1F, 0x00, 0xF8, 
  0x03, 0x00, 0x06, 0x00, 0x00, 0x00, 0x00, 0x60, 0x00, 0xE0, 0x7F, 0x00, 
  0xFE, 0x07, 0xE0, 0x7F, 0x00, 0xFE, 0x07, 0xE0, 0x7F, 0x00, 0xFE, 0x07, 
  0xE0, 0x7F, 0x00, 0xFE, 0x07, 0xE0, 0x7F, 0x00, 0xFE, 0x07, 0xC0, 0x7F, 
  0x00, 0xFE, 0x07, 0x00, 0x06, 0x00, 0x00, 0x00, 0x00, 0x60, 0x00, 0x70, 
  0xFF, 0x00, 0x87, 0x0E, 0xF0, 0xFF, 0x00, 0x87, 0x0E, 0xF0, 0xFF, 0x00, 
  0x87, 0x0E, 0xF0, 0xFF, 0x00, 0x07, 0x0C, 0xF0, 0xFF, 0x00, 0x07, 0x0C, 
  0xF0, 0xFF, 0x00, 0x06, 0x0C, 0x00, 0x06, 0x00, 0x00, 0x00, 0x00, 0x60, 
  0x00, 0xF8, 0xF7, 0x80, 0x05, 0x0C, 0xF8, 0xFF, 0x80, 0x01, 0x18, 0xB8, 
  0xFF, 0x81, 0x05, 0x18, 0xF8, 0xBF, 0x81, 0x43, 0x19, 0xF8, 0xDF, 0x81, 
  0x21, 0x18, 0xF8, 0xBF, 0x81, 0x43, 0x18, 0x00, 0x06, 0x00, 0x00, 0x80, 
  0x01, 0x60, 0x00, 0xFC, 0xEF, 0xC1, 0x10, 0x19, 0xFC, 0xDE, 0x81, 0x14, 
  0x18, 0xF8, 0xE7, 0x81, 0x12, 0x1A, 0xF8, 0xFF, 0x81, 0x01, 0x38, 0xB8, 
  0xFF, 0x83, 0x05, 0x31, 0xD8, 0xFF, 0x83, 0x01, 0x32, 0x00, 0x06, 0x00, 
  0x00, 0x80, 0x03, 0x60, 0x00, 0xFC, 0xFF, 0xC3, 0x00, 0x30, 0xFC, 0xFF, 
  0xC3, 0x0A, 0x38, 0xFC, 0xFD, 0xC3, 0x08, 0x30, 0xFC, 0xFF, 0xC3, 0x18, 
  0x32, 0xFC, 0xFF, 0x83, 0x01, 0x35, 0xFC, 0xFF, 0x83, 0x28, 0x38, 0x00, 
  0x06, 0x00, 0x00, 0x80, 0x03, 0x60, 0x00, 0xDE, 0xFD, 0x43, 0x41, 0x30, 
  0xDC, 0xF7, 0xC3, 0x80, 0x31, 0xFC, 0xFF, 0xC3, 0x40, 0x32, 0x5C, 0xF7, 
  0xC3, 0x80, 0x20, 0xFC, 0xF7, 0xC3, 0x10, 0x20, 0xFC, 0xF7, 0xC3, 0x81, 
  0x21, 0x00, 0x06, 0x00, 0x00, 0xC0, 0x02, 0x60, 0x00, 0xFC, 0xDF, 0x43, 
  0x88, 0x30, 0xFC, 0x7F, 0x43, 0x01, 0x31, 0xBC, 0xBF, 0x43, 0x02, 0x24, 
  0xFC, 0xFF, 0xC3, 0x00, 0x21, 0x7C, 0xEF, 0xC3, 0x60, 0x20, 0xFC, 0xEF, 
  0xC7, 0x18, 0x60, 0x00, 0x06, 0x00, 0x00, 0xC0, 0x06, 0x60, 0x00, 0xFE, 
  0xFB, 0x63, 0x02, 0x32, 0xFE, 0xFA, 0x43, 0x40, 0x28, 0xFC, 0xF7, 0x43, 
  0x20, 0x30, 0xFC, 0xE7, 0x43, 0x12, 0x60, 0xFC, 0xFF, 0xC7, 0x00, 0x60, 
  0x7C, 0xFF, 0xC7, 0x00, 0x68, 0x00, 0x06, 0x00, 0x00, 0xC0, 0x07, 0x60, 
  0x00, 0x7C, 0xFF, 0x63, 0x14, 0x34, 0x7C, 0xFF, 0xC3, 0x20, 0x30, 0xFC, 
  0xFF, 0xC3, 0x00, 0x20, 0xEC, 0xFD, 0xC3, 0x08, 0x28, 0xFC, 0x7A, 0xC3, 
  0x49, 0x39, 0xFC, 0x76, 0xC3, 0x00, 0x70, 0x00, 0x06, 0x00, 0x00, 0x60, 
  0x04, 0x60, 0x00, 0xFC, 0xFF, 0xC3, 0x00, 0x31, 0xFC, 0xDF, 0xC3, 0x42, 
  0x30, 0xEC, 0xFF, 0xC3, 0x61, 0x34, 0xFC, 0x7F, 0xC3, 0x41, 0x30, 0xDC, 
  0xFF, 0xC3, 0x00, 0x30, 0xEC, 0xFF, 0xC3, 0x42, 0x22, 0x00, 0x06, 0x00, 
  0x00, 0x60, 0x0C, 0x60, 0x00, 0xFC, 0xFF, 0xC1, 0x10, 0x18, 0xFC, 0xFF, 
  0xC1, 0x08, 0x18, 0xFC, 0xDE, 0xC1, 0x20, 0x30, 0xFC, 0xFE, 0x83, 0x21, 
  0x31, 0xF8, 0xFD, 0x83, 0x29, 0x30, 0xF8, 0xFF, 0x83, 0x02, 0x31, 0x00, 
  0x06, 0x00, 0x00, 0x00, 0x00, 0x60, 0x00, 0xF8, 0xFE, 0x81, 0x01, 0x1A, 
  0xF8, 0xFD, 0x81, 0x81, 0x1A, 0xF8, 0xFF, 0x81, 0x05, 0x19, 0xF8, 0xEF, 
  0x81, 0x81, 0x18, 0xF8, 0xFF, 0x81, 0x01, 0x19, 0xF8, 0xEF, 0x81, 0x41, 
  0x18, 0x00, 0x06, 0x00, 0x00, 0x00, 0x00, 0x60, 0x00, 0xF0, 0xFF, 0x80, 
  0x23, 0x0E, 0xF8, 0xFF, 0x00, 0x03, 0x0C, 0xF0, 0xFF, 0x00, 0x03, 0x0C, 
  0x70, 0xFF, 0x00, 0x03, 0x0C, 0xF0, 0xEF, 0x00, 0x83, 0x0C, 0xF0, 0xFB, 
  0x00, 0x87, 0x1C, 0x00, 0x06, 0x00, 0x00, 0x00, 0x00, 0x60, 0x00, 0xF0, 
  0x7B, 0x00, 0x8F, 0x07, 0xE0, 0x7F, 0x00, 0x8F, 0x07, 0xE0, 0x7B, 0x00, 
  0x9E, 0x07, 0xE0, 0xFF, 0x00, 0x2E, 0x0F, 0xE0, 0xFF, 0x00, 0x1E, 0x0F, 
  0xE0, 0xFF, 0x00, 0x1E, 0x07, 0x00, 0x06, 0x00, 0x00, 0x00, 0x00, 0x60, 
  0x00, 0xC0, 0x3F, 0x00, 0xFC, 0x03, 0xC0, 0x3F, 0x00, 0xFC, 0x03, 0xC0, 
  0x3F, 0x00, 0xFC, 0x03, 0xC0, 0x3F, 0x00, 0xFC, 0x03, 0xC0, 0x3F, 0x00, 
  0xFC, 0x03, 0x80, 0x3F, 0x00, 0xF8, 0x03, 0x00, 0x06, 0x00, 0x00, 0x00, 
  0x00, 0x60, 0x00, 0x00, 0x06, 0x00, 0x40, 0x00, 0x00, 0x04, 0x00, 0x60, 
  0x00, 0x00, 0x02, 0x00, 0x60, 0x00, 0x00, 0x06, 0x00, 0x40, 0x00, 0x00, 
  0x04, 0x00, 0x60, 0x00, 0x00, 0x04, 0x00, 0x20, 0x00, 0x00, 0x06, 0x00, 
  0x00, 0x00, 0x00, 0x60, 0x00, 0x00, 0x00, 0x00, 0x00, 0x00, 0x00, 0x00, 
  0x00, 0x00, 0x00, 0x00, 0x00, 0x00, 0x00, 0x00, 0x00, 0x00, 0x00, 0x00, 
  0x00, 0x00, 0x00, 0x00, 0x00, 0x00, 0x00, 0x00, 0x00, 0x00, 0x00, 0x00, 
  0x06, 0x00, 0x00, 0x00, 0x00, 0x60, 0x00, 0x00, 0x02, 0x00, 0x70, 0x00, 
  0x00, 0x05, 0x00, 0x50, 0x00, 0x00, 0x06, 0x00, 0x40, 0x00, 0x00, 0x04, 
  0x00, 0xE0, 0x00, 0x00, 0x06, 0x00, 0x40, 0x00, 0x00, 0x06, 0x00, 0xA0, 
  0x00, 0x00, 0x06, 0x00, 0x00, 0x00, 0x00, 0x60, 0x00, 0xC0, 0x3F, 0x00, 
  0xFC, 0x03, 0xC0, 0x3F, 0x00, 0xFC, 0x03, 0xC0, 0x3F, 0x00, 0xFC, 0x03, 
  0xC0, 0x3F, 0x00, 0xFC, 0x03, 0xC0, 0x3F, 0x00, 0xFC, 0x03, 0xC0, 0x3F, 
  0x00, 0xFC, 0x03, 0x00, 0x06, 0x00, 0x00, 0x00, 0x00, 0x60, 0x00, 0xF0, 
  0x7F, 0x00, 0x0F, 0x07, 0xE0, 0x7D, 0x00, 0x4F, 0x07, 0xF0, 0xFF, 0x00, 
  0x8E, 0x07, 0xF0, 0xFF, 0x00, 0x1E, 0x0F, 0xE0, 0xFF, 0x00, 0x4E, 0x0F, 
  0xE0, 0xFF, 0x00, 0x2E, 0x0F, 0x00, 0x06, 0x00, 0x00, 0x00, 0x00, 0x60, 
  0x00, 0xF8, 0xFF, 0x00, 0x9B, 0x0C, 0xF8, 0xFF, 0x00, 0x23, 0x0E, 0xF8, 
  0xFF, 0x00, 0x03, 0x0E, 0xF0, 0xFF, 0x00, 0x43, 0x0C, 0xF0, 0xFF, 0x00, 
  0x23, 0x1C, 0xF0, 0xFF, 0x01, 0x27, 0x1C, 0x00, 0x06, 0x00, 0x00, 0x00, 
  0x00, 0x60, 0x00, 0xF8, 0xFF, 0x81, 0x01, 0x19, 0xF8, 0xFF, 0x81, 0x01, 
  0x18, 0xF8, 0xFF, 0x81, 0x25, 0x18, 0xB8, 0xFF, 0x81, 0x05, 0x18, 0xF8, 
  0xFD, 0x81, 0x05, 0x18, 0xF8, 0xFF, 0x81, 0x81, 0x18, 0x00, 0x06, 0x00, 
  0x00, 0xE0, 0x07, 0x60, 0x00, 0xFC, 0xBF, 0xC1, 0x02, 0x18, 0xFC, 0xF7, 
  0xC1, 0x40, 0x19, 0xFC, 0xBF, 0xC3, 0x60, 0x30, 0xFC, 0xBF, 0x83, 0x08, 
  0x30, 0xFC, 0xFD, 0x83, 0x40, 0x30, 0xF8, 0xFE, 0x83, 0x11, 0x30, 0x00, 
  0x06, 0x00, 0x00, 0x40, 0x04, 0x60, 0x00, 0xDC, 0xF7, 0xC3, 0x40, 0x30, 
  0xFC, 0xFF, 0xC3, 0x04, 0x30, 0x7C, 0xF5, 0xC3, 0x00, 0x31, 0xFC, 0xF5, 
  0xC3, 0x82, 0x35, 0xFC, 0xDF, 0xC3, 0x04, 0x38, 0xBC, 0xBF, 0xC3, 0x08, 
  0x24, 0x00, 0x06, 0x00, 0x00, 0x40, 0x06, 0x60, 0x00, 0xFC, 0xFF, 0x63, 
  0x00, 0x30, 0xFC, 0xDE, 0x43, 0x02, 0x30, 0xFC, 0xFF, 0xC3, 0x29, 0x30, 
  0xFC, 0xFF, 0xC3, 0x04, 0x21, 0xFC, 0xFB, 0xC3, 0x02, 0x2A, 0xFC, 0xFF, 
  0xC3, 0x00, 0x62, 0x00, 0x06, 0x00, 0x00, 0xE0, 0x07, 0x60, 0x00, 0xFE, 
  0xFE, 0x63, 0x62, 0x38, 0xBE, 0xFF, 0x63, 0x84, 0x32, 0xEC, 0xEF, 0x43, 
  0x00, 0x24, 0x7C, 0xEF, 0xC3, 0x10, 0x20, 0xDC, 0xFF, 0xC7, 0x84, 0x60, 
  0xBC, 0xFB, 0xC7, 0x22, 0x68, 0x00, 0x06, 0x00, 0x00, 0x40, 0x04, 0x60, 
  0x00, 0xFE, 0x7F, 0x63, 0x88, 0x30, 0xFC, 0xBF, 0x43, 0x20, 0x30, 0xFC, 
  0xFB, 0x43, 0x08, 0x31, 0xFC, 0xFB, 0xC3, 0x00, 0x24, 0xFC, 0xFF, 0xC3, 
  0x08, 0x60, 0xEC, 0x7F, 0xC7, 0x20, 0x66, 0x00, 0x06, 0x00, 0x00, 0x60, 
  0x0C, 0x60, 0x00, 0xEC, 0xF5, 0x43, 0x02, 0x38, 0xEC, 0xFD, 0xC3, 0x02, 
  0x32, 0x7C, 0xFF, 0xC3, 0x21, 0x30, 0xDC, 0xFF, 0xC3, 0x92, 0x30, 0xFC, 
  0xF7, 0xC3, 0x80, 0x34, 0xFC, 0xF6, 0xC3, 0x02, 0x20, 0x00, 0x06, 0x00, 
  0x00, 0x60, 0x04, 0x60, 0x00, 0xFC, 0xFF, 0xC1, 0x04, 0x32, 0xFC, 0xF7, 
  0xC3, 0x05, 0x34, 0xFC, 0xEF, 0xC3, 0x40, 0x38, 0xFC, 0xDF, 0xC3, 0x00, 
  0x30, 0xFC, 0xDF, 0xC3, 0x00, 0x32, 0xF8, 0xFF, 0x83, 0x05, 0x32, 0x00, 
  0x06, 0x00, 0x00, 0xC0, 0x07, 0x60, 0x00, 0xFC, 0xFF, 0xC1, 0x40, 0x18, 
  0xFC, 0xFF, 0x81, 0x10, 0x18, 0xF8, 0xFE, 0x81, 0x11, 0x10, 0xF8, 0xFE, 
  0x81, 0x07, 0x19, 0xD8, 0xFE, 0x81, 0x25, 0x18, 0xF8, 0xEF, 0x81, 0x21, 
  0x30, 0x00, 0x06, 0x00, 0x00, 0x00, 0x00, 0x60, 0x00, 0xF8, 0xFF, 0x80, 
  0x09, 0x0D, 0xF8, 0xEF, 0x80, 0x81, 0x1C, 0xF8, 0xFF, 0x81, 0x29, 0x09, 
  0xF8, 0xFF, 0x01, 0x01, 0x18, 0xF8, 0xFF, 0x01, 0x27, 0x18, 0xF0, 0xFF, 
  0x01, 0x43, 0x18, 0x00, 0x06, 0x00, 0x00, 0x00, 0x00, 0x60, 0x00, 0xF0, 
  0x7F, 0x00, 0x27, 0x0E, 0xF0, 0xFF, 0x00, 0x27, 0x0E, 0xF0, 0xFF, 0x00, 
  0x07, 0x0E, 0xF0, 0xFF, 0x00, 0x8F, 0x0E, 0xF0, 0xFF, 0x00, 0x07, 0x0E, 
  0xF0, 0xFF, 0x00, 0x0F, 0x0E, 0x00, 0x06, 0x00, 0x00, 0x00, 0x00, 0x60, 
  0x00, 0xE0, 0x3F, 0x00, 0xFE, 0x03, 0xE0, 0x7F, 0x00, 0xFE, 0x03, 0xE0, 
  0x3F, 0x00, 0xFE, 0x07, 0xE0, 0x7F, 0x00, 0xFC, 0x07, 0xC0, 0x7F, 0x00, 
  0xFC, 0x07, 0xC0, 0x7F, 0x00, 0xFC, 0x07, 0x00, 0x06, 0x00, 0x00, 0x00, 
  0x00, 0x60, 0x00, 0x80, 0x1F, 0x00, 0xF8, 0x00, 0x80, 0x1F, 0x00, 0xF8, 
  0x01, 0x00, 0x1F, 0x00, 0xF8, 0x01, 0x80, 0x0F, 0x00, 0xF8, 0x01, 0x80, 
  0x1F, 0x00, 0xF8, 0x01, 0x80, 0x1F, 0x00, 0xF0, 0x01, 0x00, 0x06, 0x00, 
  0x00, 0x00, 0x00, 0x60, 0x00, 0x00, 0x00, 0x00, 0x00, 0x00, 0x00, 0x00, 
  0x00, 0x00, 0x00, 0x00, 0x00, 0x00, 0x00, 0x00, 0x00, 0x00, 0x00, 0x00, 
  0x00, 0x00, 0x00, 0x00, 0x00, 0x00, 0x00, 0x00, 0x00, 0x00, 0x00, 0x00, 
  0x06, 0x00, 0x00, 0x00, 0x00, 0x60, 0x00, 0x00, 0x00, 0x00, 0x00, 0x00, 
  0x00, 0x00, 0x00, 0x00, 0x00, 0x00, 0x00, 0x00, 0x00, 0x00, 0x00, 0x00, 
  0x00, 0x00, 0x00, 0x00, 0x00, 0x00, 0x00, 0x00, 0x00, 0x00, 0x00, 0x00, 
  0x00, 0x00, 0x06, 0x00, 0x00, 0x00, 0x00, 0x60, 0x00, 0x80, 0x1F, 0x00, 
  0xF8, 0x01, 0x80, 0x1F, 0x00, 0xF8, 0x01, 0x80, 0x1F, 0x00, 0xF8, 0x01, 
  0x80, 0x1F, 0x00, 0xF8, 0x01, 0x80, 0x1F, 0x00, 0xF0, 0x01, 0x80, 0x1F, 
  0x00, 0xF8, 0x03, 0x00, 0x06, 0x00, 0x00, 0x00, 0x00, 0x60, 0x00, 0xE0, 
  0x3F, 0x00, 0xFE, 0x03, 0xE0, 0x7F, 0x00, 0xFE, 0x03, 0xE0, 0x7F, 0x00, 
  0xFE, 0x07, 0xE0, 0x7F, 0x00, 0xFE, 0x07, 0xE0, 0x7F, 0x00, 0xFE, 0x07, 
  0xC0, 0x7F, 0x00, 0xFC, 0x07, 0x00, 0x06, 0x00, 0x00, 0x00, 0x00, 0x60, 
  0x00, 0xF0, 0xFF, 0x00, 0x13, 0x0E, 0xF0, 0xFF, 0x00, 0x17, 0x0E, 0xF0, 
  0xFF, 0x00, 0x07, 0x0F, 0xF0, 0xFF, 0x00, 0x87, 0x0E, 0xF0, 0xFF, 0x00, 
  0x07, 0x0E, 0xE0, 0xFF, 0x00, 0x17, 0x0C, 0x00, 0x06, 0x00, 0x00, 0x00, 
  0x00, 0x60, 0x00, 0xF8, 0xF7, 0x80, 0x41, 0x0C, 0xF8, 0xFD, 0x80, 0x01, 
  0x1C, 0xF8, 0xFE, 0x81, 0x49, 0x18, 0xF8, 0xFB, 0x81, 0x11, 0x1C, 0xF8, 
  0xF7, 0x01, 0x87, 0x18, 0xF0, 0xFF, 0x01, 0x03, 0x18, 0x00, 0x06, 0x00, 
  0x00, 0x80, 0x07, 0x60, 0x00, 0xBC, 0xBF, 0x81, 0x09, 0x18, 0xB8, 0xFF, 
  0x81, 0x08, 0x18, 0xF8, 0xFB, 0x81, 0x21, 0x10, 0xF8, 0xFF, 0x81, 0x05, 
  0x12, 0xD8, 0xFF, 0x81, 0x01, 0x34, 0xF8, 0xF5, 0x83, 0x01, 0x38, 0x00, 
  0x06, 0x00, 0x00, 0xC0, 0x04, 0x60, 0x00, 0xFC, 0xFF, 0xC3, 0x20, 0x31, 
  0xFC, 0xEF, 0xC3, 0x21, 0x31, 0xFC, 0xFF, 0xC3, 0x00, 0x32, 0xEC, 0xFD, 
  0xC3, 0x00, 0x30, 0xFC, 0xFD, 0xC3, 0x10, 0x30, 0xFC, 0xFF, 0xC3, 0x24, 
  0x31, 0x00, 0x06, 0x00, 0x00, 0x60, 0x0C, 0x60, 0x00, 0xFC, 0xFE, 0xC3, 
  0x42, 0x31, 0xBC, 0xF7, 0xC3, 0x00, 0x30, 0xFC, 0xBB, 0xC3, 0x82, 0x38, 
  0xDC, 0xFB, 0xC3, 0x82, 0x30, 0xFC, 0xF7, 0xC3, 0x24, 0x30, 0xBC, 0xFB, 
  0xC3, 0x08, 0x24, 0x00, 0x06, 0x00, 0x00, 0x60, 0x00, 0x60, 0x00, 0xEC, 
  0xDF, 0x63, 0x00, 0x38, 0xFE, 0xFF, 0xC3, 0x44, 0x34, 0xFC, 0xFF, 0x43, 
  0x20, 0x30, 0xFC, 0xBF, 0x43, 0x20, 0x20, 0x7C, 0xFF, 0xC3, 0x00, 0x24, 
  0xFC, 0xFF, 0xC7, 0x40, 0x60, 0x00, 0x06, 0x00, 0x00, 0x60, 0x00, 0x60, 
  0x00, 0xFE, 0xFF, 0x63, 0x28, 0x30, 0xFE, 0xBF, 0x63, 0xA2, 0x32, 0x6C, 
  0xFE, 0x43, 0x40, 0x20, 0xBC, 0xFE, 0xC3, 0x48, 0x21, 0xFC, 0xBF, 0xC7, 
  0x82, 0x60, 0xFC, 0xBF, 0xC7, 0x20, 0x62, 0x00, 0x06, 0x00, 0x00, 0x60, 
  0x0C, 0x60, 0x00, 0x7E, 0xFB, 0x43, 0x80, 0x30, 0xBC, 0xFE, 0x43, 0x00, 
  0x30, 0xFC, 0xBF, 0xC3, 0x01, 0x34, 0xFC, 0xFF, 0xC3, 0x00, 0x38, 0xFC, 
  0xFD, 0xC3, 0x08, 0x26, 0xBC, 0xFE, 0xC3, 0x84, 0x68, 0x00, 0x06, 0x00, 
  0x00, 0xC0, 0x0C, 0x60, 0x00, 0xFC, 0xFB, 0xC3, 0x01, 0x30, 0xFC, 0xF7, 
  0xC3, 0x00, 0x34, 0xFC, 0xEF, 0xC3, 0x00, 0x38, 0xFC, 0xEF, 0xC3, 0x05, 
  0x30, 0xFC, 0xFF, 0xC3, 0x40, 0x34, 0xFC, 0xFE, 0xC3, 0x00, 0x32, 0x00, 
  0x06, 0x00, 0x00, 0x80, 0x07, 0x60, 0x00, 0xFC, 0xBF, 0xC1, 0x18, 0x19, 
  0xFC, 0xEF, 0xC1, 0x05, 0x10, 0xFC, 0xFF, 0xC1, 0x4A, 0x12, 0xFC, 0xFE, 
  0x83, 0x00, 0x34, 0xF8, 0xEF, 0x83, 0x01, 0x30, 0xF8, 0xEF, 0x83, 0x16, 
  0x30, 0x00, 0x06, 0x00, 0x00, 0x00, 0x00, 0x60, 0x00, 0xF8, 0xFD, 0x81, 
  0x01, 0x18, 0xF8, 0xFF, 0x81, 0x11, 0x18, 0xF8, 0xFD, 0x81, 0x21, 0x1C, 
  0xF8, 0xFB, 0x81, 0x85, 0x1A, 0xF8, 0xFA, 0x81, 0x15, 0x18, 0xF8, 0xFF, 
  0x81, 0x03, 0x18, 0x00, 0x06, 0x00, 0x00, 0x00, 0x00, 0x60, 0x00, 0xF8, 
  0xFF, 0x00, 0x43, 0x0E, 0xF0, 0xFD, 0x00, 0x83, 0x0E, 0xF8, 0xFF, 0x00, 
  0x43, 0x0C, 0xF0, 0xFF, 0x00, 0x13, 0x0C, 0xF0, 0xFF, 0x00, 0x03, 0x0D, 
  0xF0, 0xFB, 0x00, 0x83, 0x0C, 0x00, 0x06, 0x00, 0x00, 0x00, 0x00, 0x60, 
  0x00, 0xF0, 0x7F, 0x00, 0x8F, 0x07, 0xF0, 0x7F, 0x00, 0x1E, 0x07, 0xE0, 
  0x7F, 0x00, 0x0E, 0x07, 0xE0, 0xFF, 0x00, 0x1E, 0x0F, 0xE0, 0xFF, 0x00, 
  0x4E, 0x0F, 0xE0, 0xFF, 0x00, 0x1E, 0x0F, 0x00, 0x06, 0x00, 0x00, 0x00, 
  0x00, 0x60, 0x00, 0xE0, 0x3F, 0x00, 0xFC, 0x01, 0xC0, 0x3F, 0x00, 0xFC, 
  0x03, 0xC0, 0x3F, 0x00, 0xFC, 0x03, 0xC0, 0x3F, 0x00, 0xFC, 0x03, 0xC0, 
  0x3F, 0x00, 0xFC, 0x03, 0xC0, 0x3F, 0x00, 0xFC, 0x03, 0x00, 0x06, 0x00, 
  0x00, 0x00, 0x00, 0x60, 0x00, 0x00, 0x02, 0x00, 0x40, 0x00, 0x00, 0x02, 
  0x00, 0x60, 0x00, 0x00, 0x06, 0x00, 0x60, 0x00, 0x00, 0x04, 0x00, 0x60, 
  0x00, 0x00, 0x04, 0x00, 0x40, 0x00, 0x00, 0x04, 0x00, 0x20, 0x00, 0x00, 
  0x06, 0x00, 0x00, 0x00, 0x00, 0x60, 0x00, 0x00, 0x00, 0x00, 0x00, 0x00, 
  0x00, 0x00, 0x00, 0x00, 0x00, 0x00, 0x00, 0x00, 0x00, 0x00, 0x00, 0x00, 
  0x00, 0x00, 0x00, 0x00, 0x00, 0x00, 0x00, 0x00, 0x00, 0x00, 0x00, 0x00, 
  0x00, 0x00, 0x06, 0x00, 0x00, 0x00, 0x00, 0x60, 0x00, 0x00, 0x06, 0x00, 
  0x30, 0x00, 0x00, 0x06, 0x00, 0x50, 0x00, 0x00, 0x06, 0x00, 0x60, 0x00, 
  0x00, 0x06, 0x00, 0x60, 0x00, 0x00, 0x06, 0x00, 0x60, 0x00, 0x00, 0x06, 
  0x00, 0xE0, 0x00, 0x00, 0x06, 0x00, 0x00, 0x00, 0x00, 0x60, 0x00, 0xC0, 
  0x3F, 0x00, 0xFC, 0x03, 0xC0, 0x3F, 0x00, 0xFC, 0x03, 0xC0, 0x3F, 0x00, 
  0xFC, 0x03, 0xC0, 0x3F, 0x00, 0xFC, 0x03, 0xC0, 0x3F, 0x00, 0xFC, 0x03, 
  0xC0, 0x3F, 0x00, 0xFC, 0x03, 0x00, 0x06, 0x00, 0x00, 0x00, 0x00, 0x60, 
  0x00, 0xF0, 0x7F, 0x00, 0x8F, 0x07, 0xF0, 0x7F, 0x00, 0xAF, 0x07, 0xF0, 
  0x7F, 0x00, 0x4F, 0x07, 0xF0, 0x7F, 0x00, 0x1E, 0x0F, 0xE0, 0xFF, 0x00, 
  0x0E, 0x0F, 0xE0, 0xFF, 0x00, 0x0E, 0x0F, 0x00, 0x06, 0x00, 0x00, 0x00, 
  0x00, 0x60, 0x00, 0xF8, 0xFF, 0x80, 0x13, 0x0C, 0xF0, 0xFF, 0x80, 0x03, 
  0x0C, 0x78, 0xFF, 0x00, 0x23, 0x0C, 0xF0, 0xFF, 0x00, 0x03, 0x0C, 0xF0, 
  0xFF, 0x00, 0x8B, 0x0C, 0xF0, 0xFF, 0x00, 0x43, 0x18, 0x00, 0x06, 0x00, 
  0x00, 0x00, 0x00, 0x60, 0x00, 0xFC, 0xDF, 0x81, 0x21, 0x18, 0xF8, 0xDB, 
  0x81, 0x01, 0x1C, 0xF8, 0xFF, 0x81, 0x03, 0x18, 0xF8, 0xB7, 0x81, 0x85, 
  0x1A, 0xD8, 0xFD, 0x81, 0x85, 0x1C, 0xF8, 0xFF, 0x81, 0x21, 0x1E, 0x00, 
  0x06, 0x00, 0x00, 0xC0, 0x07, 0x60, 0x00, 0xFC, 0xFD, 0xC1, 0x00, 0x1A, 
  0xFC, 0xFF, 0xC1, 0x10, 0x30, 0xFC, 0xF6, 0x83, 0x40, 0x30, 0xFC, 0xFF, 
  0xC3, 0x10, 0x30, 0xFC, 0xBF, 0x83, 0x02, 0x30, 0xF8, 0xBA, 0x83, 0x05, 
  0x30, 0x00, 0x06, 0x00, 0x00, 0x40, 0x06, 0x60, 0x00, 0x7C, 0xFF, 0x43, 
  0x05, 0x34, 0xFC, 0xBD, 0xC3, 0x59, 0x30, 0xFC, 0xBF, 0xC3, 0x20, 0x31, 
  0x7C, 0xFE, 0xC3, 0x00, 0x30, 0xFC, 0xFF, 0xC3, 0x04, 0x31, 0xEC, 0xFF, 
  0xC3, 0x01, 0x32, 0x00, 0x06, 0x00, 0x00, 0x60, 0x0C, 0x60, 0x00, 0xFC, 
  0x7F, 0xE3, 0x10, 0x30, 0x7E, 0xFF, 0x43, 0x00, 0x31, 0xEC, 0xFF, 0xC3, 
  0x88, 0x38, 0xFC, 0xBF, 0xC3, 0x41, 0x29, 0x7C, 0xF7, 0xC3, 0x40, 0x28, 
  0xFC, 0xFF, 0xC3, 0x20, 0x20, 0x00, 0x06, 0x00, 0x00, 0x40, 0x0C, 0x60, 
  0x00, 0xFE, 0xF7, 0x43, 0x40, 0x30, 0xFC, 0xF7, 0x43, 0x40, 0x38, 0xFC, 
  0xFF, 0x43, 0x01, 0x21, 0x7C, 0xEF, 0x43, 0x88, 0x30, 0xFC, 0xDF, 0xC7, 
  0x08, 0x60, 0xFC, 0xFF, 0xC7, 0x60, 0x62, 0x00, 0x06, 0x00, 0x00, 0x40, 
  0x0C, 0x60, 0x00, 0xDE, 0xFF, 0x63, 0x20, 0x32, 0xBC, 0xFF, 0x43, 0x02, 
  0x32, 0xFC, 0xE7, 0x43, 0x04, 0x28, 0xFC, 0xFF, 0xC3, 0x12, 0x28, 0xFC, 
  0xFD, 0xC3, 0x21, 0x21, 0xBC, 0xEF, 0xC7, 0x00, 0x60, 0x00, 0x06, 0x00, 
  0x00, 0x40, 0x0C, 0x60, 0x00, 0xFC, 0xEF, 0x43, 0x48, 0x30, 0xFC, 0xFF, 
  0xC3, 0x00, 0x34, 0x7C, 0xFD, 0xC3, 0x12, 0x30, 0xFC, 0xFD, 0xC3, 0x04, 
  0x20, 0xDC, 0xFF, 0xC3, 0x40, 0x30, 0xFC, 0xF6, 0xC3, 0x21, 0x28, 0x00, 
  0x06, 0x00, 0x00, 0x60, 0x04, 0x60, 0x00, 0xBC, 0xFE, 0xC3, 0x01, 0x16, 
  0xFC, 0xBD, 0xC3, 0x46, 0x10, 0xFC, 0xBF, 0xC3, 0x80, 0x30, 0xEC, 0x7F, 
  0xC3, 0x00, 0x32, 0xFC, 0xFD, 0xC3, 0x10, 0x34, 0xF8, 0x7F, 0x83, 0x08, 
  0x31, 0x00, 0x06, 0x00, 0x00, 0xC0, 0x07, 0x60, 0x00, 0xFC, 0xFF, 0xC1, 
  0x82, 0x18, 0xF8, 0xFF, 0x81, 0x20, 0x18, 0xF8, 0xFF, 0x81, 0x81, 0x12, 
  0xF8, 0xFF, 0x81, 0x01, 0x14, 0xF8, 0xFB, 0x81, 0x81, 0x18, 0xF8, 0xF7, 
  0x83, 0x49, 0x38, 0x00, 0x06, 0x00, 0x00, 0x00, 0x00, 0x60, 0x00, 0xF8, 
  0xDF, 0x80, 0x11, 0x0C, 0xF8, 0xFF, 0x80, 0x05, 0x1D, 0xF8, 0xF7, 0x81, 
  0x15, 0x1C, 0xF8, 0xFE, 0x01, 0xA3, 0x1A, 0xF0, 0xFF, 0x01, 0x13, 0x18, 
  0xF0, 0xFF, 0x01, 0x03, 0x18, 0x00, 0x06, 0x00, 0x00, 0x00, 0x00, 0x60, 
  0x00, 0xF0, 0x7F, 0x00, 0x07, 0x0F, 0xF0, 0xFF, 0x00, 0x07, 0x0E, 0xF0, 
  0xFF, 0x00, 0x07, 0x0E, 0xF0, 0xFF, 0x00, 0x07, 0x0E, 0xF0, 0xFF, 0x00, 
  0x0F, 0x0E, 0xF0, 0xFF, 0x00, 0x17, 0x0E, 0x00, 0x06, 0x00, 0x00, 0x00, 
  0x00, 0x60, 0x00, 0xE0, 0x7F, 0x00, 0xFE, 0x07, 0xE0, 0x3F, 0x00, 0xFE, 
  0x03, 0xE0, 0x7F, 0x00, 0xFE, 0x07, 0xE0, 0x7F, 0x00, 0xFE, 0x07, 0xE0, 
  0x7F, 0x00, 0xFE, 0x07, 0xE0, 0x7F, 0x00, 0xFC, 0x07, 0x00, 0x06, 0x00, 
  0x00, 0x00, 0x00, 0x60, 0x00, 0x80, 0x0F, 0x00, 0xF8, 0x00, 0x80, 0x1F, 
  0x00, 0xF8, 0x01, 0x80, 0x1F, 0x00, 0xF8, 0x00, 0x80, 0x1F, 0x00, 0xF0, 
  0x01, 0x80, 0x1F, 0x00, 0xF8, 0x01, 0x00, 0x1F, 0x00, 0xF8, 0x01, 0x00, 
  0x06, 0x00, 0x00, 0x00, 0x00, 0x60, 0x00, 0x00, 0x00, 0x00, 0x00, 0x00, 
  0x00, 0x00, 0x00, 0x00, 0x00, 0x00, 0x00, 0x00, 0x00, 0x00, 0x00, 0x00, 
  0x00, 0x00, 0x00, 0x00, 0x00, 0x00, 0x00, 0x00, 0x00, 0x00, 0x00, 0x00, 
  0x00, 0x00, 0x06, 0x00, 0x00, 0x00, 0x00, 0x60, 0x00, 0x00, 0x00, 0x00, 
  0x00, 0x00, 0x00, 0x00, 0x00, 0x00, 0x00, 0x00, 0x00, 0x00, 0x00, 0x00, 
  0x00, 0x00, 0x00, 0x00, 0x00, 0x00, 0x00, 0x00, 0x00, 0x00, 0x00, 0x00, 
  0x00, 0x00, 0x00, 0x00, 0x06, 0x00, 0x00, 0x00, 0x00, 0x60, 0x00, 0x80, 
  0x0F, 0x00, 0xF8, 0x01, 0x80, 0x0F, 0x00, 0xF8, 0x00, 0x80, 0x1F, 0x00, 
  0xF8, 0x01, 0x80, 0x1F, 0x00, 0xF8, 0x01, 0x80, 0x1F, 0x00, 0xF0, 0x01, 
  0x80, 0x1F, 0x00, 0xF0, 0x01, 0x00, 0x06, 0x00, 0x00, 0x00, 0x00, 0x60, 
  0x00, 0xE0, 0x7F, 0x00, 0xFE, 0x07, 0xE0, 0x7F, 0x00, 0xFE, 0x07, 0xE0, 
  0x7F, 0x00, 0xFE, 0x07, 0xE0, 0x7F, 0x00, 0xFE, 0x07, 0xE0, 0x7F, 0x00, 
  0xFE, 0x07, 0xC0, 0x7F, 0x00, 0xFE, 0x07, 0x00, 0x06, 0x00, 0x00, 0x00, 
  0x00, 0x60, 0x00, 0xF0, 0x7B, 0x00, 0x0B, 0x0E, 0xF0, 0xFF, 0x00, 0x07, 
  0x0E, 0xF0, 0xFF, 0x00, 0x07, 0x0E, 0xF0, 0xFF, 0x00, 0x07, 0x0E, 0xF0, 
  0xFF, 0x00, 0x87, 0x0E, 0xF0, 0xFF, 0x00, 0x06, 0x0E, 0x00, 0x06, 0x00, 
  0x00, 0x00, 0x00, 0x60, 0x00, 0xF8, 0xFF, 0x80, 0x41, 0x0C, 0xF8, 0xFB, 
  0x80, 0x27, 0x0C, 0xF8, 0xFF, 0x80, 0x13, 0x1A, 0xF8, 0xFF, 0x81, 0x1B, 
  0x18, 0xF0, 0xFD, 0x81, 0x03, 0x1E, 0xB0, 0xFF, 0x01, 0x0B, 0x1A, 0x00, 
  0x06, 0x00, 0x00, 0xC0, 0x07, 0x60, 0x00, 0xFC, 0xFF, 0x81, 0x12, 0x18, 
  0xF8, 0xFF, 0x81, 0x00, 0x19, 0xFC, 0xFE, 0x81, 0x81, 0x18, 0xF8, 0xFF, 
  0x81, 0x00, 0x18, 0xF8, 0xFF, 0x81, 0x05, 0x10, 0xF8, 0xFF, 0x83, 0x41, 
  0x30, 0x00, 0x06, 0x00, 0x00, 0x40, 0x00, 0x60, 0x00, 0xFC, 0xFE, 0xC3, 
  0x80, 0x18, 0xFC, 0xFF, 0xC3, 0x02, 0x34, 0xFC, 0xBF, 0xC3, 0x00, 0x38, 
  0x7C, 0xFE, 0xC3, 0x00, 0x36, 0xFC, 0xFF, 0x83, 0x00, 0x34, 0xFC, 0x7F, 
  0x83, 0x10, 0x34, 0x00, 0x06, 0x00, 0x00, 0x60, 0x00, 0x60, 0x00, 0x7C, 
  0xFF, 0xC3, 0x02, 0x32, 0xBC, 0xBE, 0x43, 0x20, 0x30, 0x7C, 0xFF, 0xC3, 
  0x14, 0x31, 0xFC, 0x6F, 0xC3, 0xA2, 0x30, 0xFC, 0xF7, 0xC3, 0x40, 0x30, 
  0xFC, 0xFD, 0xC3, 0x41, 0x20, 0x00, 0x06, 0x00, 0x00, 0xC0, 0x07, 0x60, 
  0x00, 0xDE, 0xBF, 0x63, 0x04, 0x34, 0xFE, 0xFF, 0x43, 0x40, 0x32, 0xDC, 
  0xFB, 0x43, 0x00, 0x30, 0xFC, 0xFF, 0xC3, 0x48, 0x24, 0x7C, 0xAF, 0xC3, 
  0xA4, 0x20, 0xFC, 0xFF, 0xC7, 0x00, 0x60, 0x00, 0x06, 0x00, 0x00, 0x40, 
  0x00, 0x60, 0x00, 0xFE, 0xFB, 0x43, 0x41, 0x30, 0xF4, 0xF7, 0xC3, 0x21, 
  0x30, 0xFC, 0xFF, 0x43, 0x82, 0x20, 0xDC, 0xFB, 0x43, 0x01, 0x60, 0xFC, 
  0xFE, 0xC7, 0x01, 0x68, 0xBC, 0xEF, 0xC7, 0x24, 0x68, 0x00, 0x06, 0x00, 
  0x00, 0x40, 0x00, 0x60, 0x00, 0xEC, 0xFD, 0x63, 0x08, 0x31, 0xBC, 0xF7, 
  0x43, 0x22, 0x32, 0xDC, 0xBD, 0xC3, 0x01, 0x28, 0xFC, 0xDF, 0xC3, 0x00, 
  0x20, 0xFC, 0xFF, 0xC3, 0x00, 0x20, 0xFC, 0xBD, 0xC7, 0x80, 0x61, 0x00, 
  0x06, 0x00, 0x00, 0x40, 0x00, 0x60, 0x00, 0xFC, 0xBF, 0xC3, 0x10, 0x38, 
  0xFC, 0xBF, 0xC3, 0x00, 0x30, 0xFC, 0xFF, 0xC3, 0x48, 0x32, 0x7C, 0xFF, 
  0xC3, 0x0A, 0x39, 0xFC, 0xF7, 0xC3, 0x50, 0x38, 0xEC, 0xFF, 0xC3, 0x12, 
  0x30, 0x00, 0x06, 0x00, 0x00, 0xC0, 0x07, 0x60, 0x00, 0xFC, 0xFD, 0xC1, 
  0x00, 0x18, 0xFC, 0xFE, 0xC1, 0x08, 0x18, 0xFC, 0xF7, 0xC1, 0x20, 0x34, 
  0xFC, 0xFA, 0x83, 0x88, 0x30, 0xF8, 0xDF, 0x83, 0x11, 0x32, 0xF8, 0xF7, 
  0x83, 0x05, 0x32, 0x00, 0x06, 0x00, 0x00, 0x00, 0x00, 0x60, 0x00, 0xFC, 
  0xFF, 0x81, 0x43, 0x18, 0xF8, 0xFF, 0x81, 0x11, 0x18, 0xF8, 0xFF, 0x81, 
  0x81, 0x18, 0xF8, 0xFF, 0x81, 0x11, 0x18, 0xD8, 0xFE, 0x81, 0x09, 0x18, 
  0xF8, 0xEF, 0x81, 0x01, 0x18, 0x00, 0x06, 0x00, 0x00, 0x00, 0x00, 0x60, 
  0x00, 0xF8, 0xFF, 0x00, 0x03, 0x0E, 0xF0, 0xFF, 0x00, 0x43, 0x0D, 0xF0, 
  0xEF, 0x00, 0x13, 0x0C, 0xF0, 0xF7, 0x00, 0x43, 0x0C, 0xF0, 0xFF, 0x01, 
  0x23, 0x0C, 0xF0, 0xFF, 0x00, 0x87, 0x1C, 0x00, 0x06, 0x00, 0x00, 0x00, 
  0x00, 0x60, 0x00, 0xF0, 0x7F, 0x00, 0x8F, 0x07, 0xF0, 0x7F, 0x00, 0x1F, 
  0x07, 0xF0, 0x7F, 0x00, 0x0F, 0x07, 0xF0, 0xFF, 0x00, 0x0E, 0x0F, 0xE0, 
  0x7F, 0x00, 0x0E, 0x0F, 0xE0, 0xFF, 0x00, 0x1E, 0x0F, 0x00, 0x06, 0x00, 
  0x00, 0x00, 0x00, 0x60, 0x00, 0xC0, 0x3F, 0x00, 0xFC, 0x03, 0xC0, 0x3F, 
  0x00, 0xFC, 0x03, 0xC0, 0x3F, 0x00, 0xFC, 0x03, 0xC0, 0x3F, 0x00, 0xFC, 
  0x03, 0xC0, 0x3F, 0x00, 0xFC, 0x03, 0xC0, 0x3F, 0x00, 0xFC, 0x03, 0x00, 
  0x06, 0x00, 0x00, 0x00, 0x00, 0x60, 0x00, 0x00, 0x06, 0x00, 0x30, 0x00, 
  0x00, 0x06, 0x00, 0x60, 0x00, 0x00, 0x06, 0x00, 0x60, 0x00, 0x00, 0x06, 
  0x00, 0x60, 0x00, 0x00, 0x0C, 0x00, 0xC0, 0x00, 0x00, 0x0A, 0x00, 0x40, 
  0x00, 0x00, 0x06, 0x00, 0x00, 0x00, 0x00, 0x60, 0x00, 0x00, 0x00, 0x00, 
  0x00, 0x00, 0x00, 0x00, 0x00, 0x00, 0x00, 0x00, 0x00, 0x00, 0x00, 0x00, 
  0x00, 0x00, 0x00, 0x00, 0x00, 0x00, 0x00, 0x00, 0x00, 0x00, 0x00, 0x00, 
  0x00, 0x00, 0x00, 0x00, 0x06, 0x00, 0x00, 0x00, 0x00, 0x60, 0x00, 0x00, 
  0x04, 0x00, 0x40, 0x00, 0x00, 0x04, 0x00, 0x40, 0x00, 0x00, 0x04, 0x00, 
  0x20, 0x00, 0x00, 0x02, 0x00, 0x80, 0x00, 0x00, 0x04, 0x00, 0x40, 0x00, 
  0x00, 0x08, 0x00, 0x20, 0x00, 0x00, 0x06, 0x00, 0x00, 0x00, 0x00, 0x60, 
  0x00, 0xC0, 0x1F, 0x00, 0xFC, 0x03, 0xC0, 0x3F, 0x00, 0xFC, 0x03, 0xC0, 
  0x3F, 0x00, 0xFC, 0x03, 0xC0, 0x3F, 0x00, 0xFC, 0x03, 0xC0, 0x3F, 0x00, 
  0xFC, 0x03, 0x80, 0x3F, 0x00, 0xF8, 0x03, 0x00, 0x06, 0x00, 0x00, 0x00, 
  0x00, 0x60, 0x00, 0xF0, 0x7F, 0x00, 0x97, 0x07, 0xF0, 0x7F, 0x00, 0x1E, 
  0x07, 0xF0, 0x7F, 0x00, 0x1E, 0x07, 0xE0, 0x7F, 0x00, 0x1E, 0x07, 0xE0, 
  0xFF, 0x00, 0x1E, 0x07, 0xE0, 0xFF, 0x00, 0x1E, 0x0F, 0x00, 0x06, 0x00, 
  0x00, 0x00, 0x00, 0x60, 0x00, 0x70, 0xFF, 0x80, 0x13, 0x0C, 0xF0, 0xFF, 
  0x00, 0x03, 0x0C, 0xF0, 0xFF, 0x00, 0x83, 0x0E, 0x70, 0xFF, 0x00, 0x03, 
  0x0C, 0xF0, 0xFF, 0x00, 0x03, 0x0E, 0xF0, 0xFF, 0x01, 0x83, 0x0C, 0x00, 
  0x06, 0x00, 0x00, 0x00, 0x00, 0x60, 0x00, 0xF8, 0xFF, 0x81, 0x01, 0x18, 
  0xF8, 0xDF, 0x81, 0x45, 0x18, 0xF8, 0xFF, 0x81, 0x29, 0x18, 0xF8, 0xFF, 
  0x81, 0x45, 0x18, 0xF8, 0xFD, 0x81, 0x83, 0x18, 0xF8, 0xFE, 0x81, 0x27, 
  0x18, 0x00, 0x06, 0x00, 0x00, 0x80, 0x0F, 0x60, 0x00, 0xFC, 0xFF, 0xC1, 
  0x00, 0x16, 0xFC, 0xFF, 0xC1, 0xA2, 0x15, 0xFC, 0xF6, 0xC3, 0x00, 0x14, 
  0xFC, 0xE7, 0x83, 0x00, 0x31, 0xF8, 0xFF, 0x83, 0x05, 0x30, 0xF8, 0xFB, 
  0x83, 0x01, 0x31, 0x00, 0x06, 0x00, 0x00, 0xC0, 0x00, 0x60, 0x00, 0xFC, 
  0xFB, 0xC1, 0x48, 0x30, 0xDC, 0xFB, 0xC3, 0x00, 0x30, 0xDC, 0xFF, 0xC3, 
  0x41, 0x30, 0xFC, 0xFF, 0xC3, 0x62, 0x38, 0xFC, 0xEF, 0xC3, 0x20, 0x32, 
  0xFC, 0xFF, 0xC3, 0x40, 0x30, 0x00, 0x06, 0x00, 0x00, 0xC0, 0x00, 0x60, 
  0x00, 0x7E, 0xFF, 0x63, 0x41, 0x30, 0xFC, 0xBD, 0x43, 0x00, 0x30, 0xFC, 
  0x7F, 0xC3, 0x00, 0x31, 0xFC, 0xEF, 0xC3, 0x10, 0x38, 0xFC, 0xBD, 0xC3, 
  0x14, 0x30, 0xEC, 0xFF, 0xC7, 0x08, 0x70, 0x00, 0x06, 0x00, 0x00, 0x80, 
  0x0F, 0x60, 0x00, 0xFC, 0x7B, 0xC3, 0x04, 0x34, 0xFE, 0xFF, 0xC3, 0x04, 
  0x30, 0xFC, 0xF7, 0x43, 0x29, 0x24, 0x7C, 0xFF, 0xC3, 0x04, 0x21, 0xFC, 
  0xFF, 0xC7, 0x00, 0x65, 0xFC, 0xBB, 0xC7, 0x20, 0x62, 0x00, 0x06, 0x00, 
  0x00, 0x80, 0x00, 0x60, 0x00, 0xFE, 0xFE, 0x63, 0x02, 0x31, 0xFC, 0xEB, 
  0x43, 0x12, 0x39, 0x7C, 0xEF, 0x43, 0x00, 0x30, 0xFC, 0xF6, 0x43, 0x01, 
  0x20, 0xFC, 0xEB, 0xC3, 0x00, 0x22, 0xFC, 0xFE, 0xC3, 0x41, 0x68, 0x00, 
  0x06, 0x00, 0x00, 0x80, 0x00, 0x60, 0x00, 0xDE, 0xFF, 0x43, 0x80, 0x38, 
  0xBC, 0xFF, 0xC3, 0x88, 0x30, 0xFC, 0xFE, 0xC3, 0x60, 0x32, 0xFC, 0xBF, 
  0xC3, 0x20, 0x30, 0xDC, 0xFF, 0xC3, 0x28, 0x20, 0xBC, 0xFF, 0xC3, 0x10, 
  0x21, 0x00, 0x06, 0x00, 0x00, 0x80, 0x00, 0x60, 0x00, 0xFC, 0xEF, 0xC1, 
  0x12, 0x10, 0xBC, 0xFF, 0xC1, 0x00, 0x30, 0xDC, 0xDF, 0xC3, 0x20, 0x30, 
  0xEC, 0xFF, 0xC3, 0x60, 0x30, 0xFC, 0xFF, 0x83, 0x11, 0x30, 0xF8, 0xEF, 
  0xC3, 0x22, 0x30, 0x00, 0x06, 0x00, 0x00, 0x80, 0x00, 0x60, 0x00, 0xBC, 
  0xF7, 0xC1, 0x40, 0x1A, 0xFC, 0xFE, 0xC1, 0x91, 0x18, 0xF8, 0xFF, 0x81, 
  0x09, 0x19, 0xF8, 0xF7, 0x81, 0x01, 0x1A, 0xB8, 0xFE, 0x83, 0x41, 0x34, 
  0xF8, 0xF7, 0x83, 0x01, 0x34, 0x00, 0x06, 0x00, 0x00, 0x00, 0x00, 0x60, 
  0x00, 0xF8, 0xFD, 0x80, 0x21, 0x18, 0xF8, 0xDF, 0x81, 0x09, 0x0D, 0xF8, 
  0xFB, 0x81, 0x01, 0x18, 0xF8, 0xFF, 0x81, 0x23, 0x18, 0xF8, 0xFF, 0x01, 
  0x23, 0x19, 0xF8, 0xFD, 0x01, 0x03, 0x18, 0x00, 0x06, 0x00, 0x00, 0x00, 
  0x00, 0x60, 0x00, 0xF0, 0xFF, 0x00, 0x07, 0x0E, 0xF0, 0xFF, 0x00, 0x07, 
  0x0E, 0xF0, 0xFF, 0x00, 0x27, 0x0E, 0xF0, 0xFE, 0x00, 0x07, 0x0E, 0xF0, 
  0xEF, 0x00, 0x07, 0x0E, 0xF0, 0xFF, 0x00, 0x1F, 0x0E, 0x00, 0x06, 0x00, 
  0x00, 0x00, 0x00, 0x60, 0x00, 0xE0, 0x3F, 0x00, 0xFE, 0x03, 0xE0, 0x7F, 
  0x00, 0xFE, 0x07, 0xE0, 0x3F, 0x00, 0xFE, 0x07, 0xE0, 0x7F, 0x00, 0xFE, 
  0x07, 0xC0, 0x7F, 0x00, 0xFC, 0x07, 0xC0, 0x7F, 0x00, 0xFC, 0x07, 0x00, 
  0x06, 0x00, 0x00, 0x00, 0x00, 0x60, 0x00, 0x80, 0x1F, 0x00, 0xFC, 0x01, 
  0x80, 0x1F, 0x00, 0xF8, 0x01, 0x80, 0x1F, 0x00, 0xF8, 0x01, 0x80, 0x1F, 
  0x00, 0xF8, 0x01, 0x80, 0x1F, 0x00, 0xF8, 0x01, 0x80, 0x1F, 0x00, 0xF8, 
  0x01, 0x00, 0x06, 0x00, 0x00, 0x00, 0x00, 0x60, 0x00, 0x00, 0x00, 0x00, 
  0x00, 0x00, 0x00, 0x00, 0x00, 0x00, 0x00, 0x00, 0x00, 0x00, 0x00, 0x00, 
  0x00, 0x00, 0x00, 0x00, 0x00, 0x00, 0x00, 0x00, 0x00, 0x00, 0x00, 0x00, 
  0x00, 0x00, 0x00, 0x00, 0x06, 0x00, 0x00, 0x00, 0x00, 0x60, 0x00, 0x00, 
  0x00, 0x00, 0x00, 0x00, 0x00, 0x00, 0x00, 0x00, 0x00, 0x00, 0x00, 0x00, 
  0x00, 0x00, 0x00, 0x00, 0x00, 0x00, 0x00, 0x00, 0x00, 0x00, 0x00, 0x00, 
  0x00, 0x00, 0x00, 0x00, 0x00, 0x00, 0x06, 0x00, 0x00, 0x00, 0x00, 0x60, 
  0x00, 0x80, 0x1F, 0x00, 0xF8, 0x01, 0x80, 0x1F, 0x00, 0xF8, 0x01, 0x80, 
  0x1F, 0x00, 0xF8, 0x01, 0x80, 0x1F, 0x00, 0xF8, 0x01, 0x80, 0x1F, 0x00, 
  0xF0, 0x01, 0x80, 0x1F, 0x00, 0xF8, 0x01, 0x00, 0x06, 0x00, 0x00, 0x00, 
  0x00, 0x60, 0x00, 0xE0, 0x3F, 0x00, 0xFE, 0x03, 0xE0, 0x3F, 0x00, 0xFE, 
  0x03, 0xE0, 0x7F, 0x00, 0xFE, 0x07, 0xE0, 0x7F, 0x00, 0xFC, 0x07, 0xE0, 
  0x7F, 0x00, 0xFE, 0x07, 0xC0, 0x7F, 0x00, 0xFC, 0x07, 0x00, 0x06, 0x00, 
  0x00, 0x00, 0x00, 0x60, 0x00, 0xF0, 0xFE, 0x00, 0x27, 0x0E, 0xF0, 0xFF, 
  0x00, 0x07, 0x0E, 0xF0, 0xFF, 0x00, 0x27, 0x0E, 0xF0, 0xFF, 0x00, 0x47, 
  0x0E, 0xF0, 0xFF, 0x00, 0x17, 0x0E, 0xF0, 0xFF, 0x00, 0x0E, 0x0C, 0x00, 
  0x06, 0x00, 0x00, 0x00, 0x00, 0x60, 0x00, 0xF8, 0xFF, 0x80, 0x01, 0x0C, 
  0xF8, 0xFF, 0x80, 0x23, 0x0C, 0xF8, 0xFF, 0x80, 0x01, 0x18, 0xF8, 0xFF, 
  0x81, 0x03, 0x18, 0xB0, 0xFF, 0x81, 0x07, 0x1A, 0xF0, 0xFF, 0x01, 0x43, 
  0x1A, 0x00, 0x06, 0x00, 0x00, 0xC0, 0x07, 0x60, 0x00, 0xFC, 0xDF, 0xC1, 
  0x24, 0x18, 0xF8, 0xFE, 0x81, 0x00, 0x1C, 0xF8, 0xFB, 0x81, 0x09, 0x18, 
  0xF8, 0xFF, 0x81, 0x09, 0x18, 0xF8, 0xFF, 0x81, 0x09, 0x32, 0xF8, 0xFF, 
  0x83, 0x01, 0x31, 0x00, 0x06, 0x00, 0x00, 0x60, 0x06, 0x60, 0x00, 0xFC, 
  0xFD, 0xC1, 0x00, 0x32, 0x7C, 0xDF, 0xC3, 0x10, 0x30, 0xFC, 0xFF, 0xC3, 
  0x20, 0x30, 0xBC, 0x7B, 0xC3, 0x00, 0x32, 0xFC, 0xFF, 0x83, 0x80, 0x30, 
  0xFC, 0xDF, 0x83, 0x49, 0x34, 0x00, 0x06, 0x00, 0x00, 0x30, 0x00, 0x60, 
  0x00, 0xFC, 0xFF, 0x43, 0x81, 0x34, 0xFC, 0xFF, 0xC3, 0x59, 0x30, 0xAC, 
  0x7F, 0x43, 0x40, 0x39, 0xFC, 0xFF, 0xC3, 0x80, 0x32, 0xEC, 0xDB, 0xC3, 
  0x00, 0x20, 0x7C, 0xFB, 0xC3, 0x00, 0x22, 0x00, 0x06, 0x00, 0x00, 0x30, 
  0x07, 0x60, 0x00, 0x7E, 0x7F, 0xE3, 0x10, 0x30, 0xFE, 0xFB, 0xC3, 0x00, 
  0x31, 0xFC, 0xFE, 0xC3, 0x10, 0x30, 0xFC, 0xDF, 0xC3, 0x11, 0x20, 0xFC, 
  0xFF, 0xC3, 0x24, 0x61, 0xEC, 0xBF, 0xC3, 0x60, 0x60, 0x00, 0x06, 0x00, 
  0x00, 0x30, 0x04, 0x60, 0x00, 0xDE, 0xF7, 0x63, 0x40, 0x32, 0xBC, 0xFB, 
  0x43, 0x40, 0x38, 0xFC, 0xF7, 0x43, 0x21, 0x20, 0xFC, 0xEE, 0x43, 0x80, 
  0x20, 0xFC, 0xFF, 0xC7, 0x24, 0x68, 0xEC, 0xBF, 0xC7, 0x20, 0x60, 0x00, 
  0x06, 0x00, 0x00, 0x30, 0x0C, 0x60, 0x00, 0xFE, 0xFF, 0x43, 0x02, 0x30, 
  0xFC, 0xBF, 0x43, 0x02, 0x32, 0xDC, 0xDF, 0x43, 0x04, 0x32, 0xFC, 0xFF, 
  0xC3, 0x1A, 0x30, 0xBC, 0xBD, 0xC3, 0x00, 0x22, 0xFC, 0xFB, 0xC7, 0x02, 
  0x64, 0x00, 0x06, 0x00, 0x00, 0x60, 0x06, 0x60, 0x00, 0xDC, 0xEF, 0xC3, 
  0x18, 0x34, 0xFC, 0xFD, 0xC3, 0x00, 0x34, 0xFC, 0xFF, 0xC3, 0x02, 0x34, 
  0x6C, 0xFF, 0xC3, 0x04, 0x31, 0xFC, 0xE7, 0xC3, 0x81, 0x34, 0xFC, 0xEF, 
  0xC3, 0x08, 0x20, 0x00, 0x06, 0x00, 0x00, 0xC0, 0x07, 0x60, 0x00, 0xFC, 
  0xFE, 0xC1, 0x01, 0x11, 0xFC, 0xFF, 0xC1, 0x46, 0x10, 0xFC, 0xBD, 0xC3, 
  0x10, 0x11, 0xFC, 0xF7, 0xC3, 0x00, 0x38, 0xF8, 0xFF, 0x83, 0x10, 0x30, 
  0x78, 0xFF, 0x83, 0x21, 0x36, 0x00, 0x06, 0x00, 0x00, 0x00, 0x00, 0x60, 
  0x00, 0xF8, 0xFF, 0x81, 0x00, 0x1C, 0xF8, 0xFF, 0x81, 0x01, 0x18, 0xF8, 
  0xFF, 0x81, 0x01, 0x18, 0xF8, 0xFF, 0x81, 0x01, 0x18, 0xF8, 0xFF, 0x81, 
  0x89, 0x1C, 0xF8, 0xFF, 0x81, 0x01, 0x18, 0x00, 0x06, 0x00, 0x00, 0x00, 
  0x00, 0x60, 0x00, 0xF8, 0xFF, 0x00, 0x53, 0x0C, 0xF8, 0xFF, 0x00, 0x47, 
  0x0C, 0xF0, 0xFB, 0x00, 0x8B, 0x0E, 0xF0, 0xFF, 0x00, 0xA7, 0x0C, 0xF0, 
  0xFF, 0x00, 0x03, 0x0C, 0xF0, 0xFF, 0x00, 0x4B, 0x18, 0x00, 0x06, 0x00, 
  0x00, 0x00, 0x00, 0x60, 0x00, 0xF0, 0x7E, 0x00, 0x1F, 0x07, 0xF0, 0x7F, 
  0x00, 0x27, 0x07, 0xF0, 0x7F, 0x00, 0x1E, 0x0F, 0xE0, 0x7F, 0x00, 0x4E, 
  0x0F, 0xE0, 0xFF, 0x00, 0x1E, 0x07, 0xE0, 0xFF, 0x00, 0x1E, 0x0F, 0x00, 
  0x06, 0x00, 0x00, 0x00, 0x00, 0x60, 0x00, 0xE0, 0x3F, 0x00, 0xFC, 0x03, 
  0xC0, 0x3F, 0x00, 0xFC, 0x03, 0xC0, 0x3F, 0x00, 0xFC, 0x03, 0xC0, 0x3F, 
  0x00, 0xFC, 0x03, 0xC0, 0x3F, 0x00, 0xFC, 0x03, 0xC0, 0x3F, 0x00, 0xFC, 
  0x07, 0x00, 0x06, 0x00, 0x00, 0x00, 0x00, 0x60, 0x00, 0x00, 0x05, 0x00, 
  0x60, 0x00, 0x00, 0x0A, 0x00, 0x60, 0x00, 0x00, 0x07, 0x00, 0x50, 0x00, 
  0x00, 0x05, 0x00, 0x60, 0x00, 0x00, 0x02, 0x00, 0x60, 0x00, 0x00, 0x06, 
  0x00, 0xE0, 0x00, 0x00, 0x06, 0x00, 0x00, 0x00, 0x00, 0x60, 0x00, 0x00, 
  0x00, 0x00, 0x00, 0x00, 0x00, 0x00, 0x00, 0x00, 0x00, 0x00, 0x00, 0x00, 
  0x00, 0x00, 0x00, 0x00, 0x00, 0x00, 0x00, 0x00, 0x00, 0x00, 0x00, 0x00, 
  0x00, 0x00, 0x00, 0x00, 0x00, 0x00, 0x06, 0x00, 0x00, 0x00, 0x00, 0x60, 
  0x00, 0x00, 0x04, 0x00, 0x20, 0x00, 0x00, 0x02, 0x00, 0x20, 0x00, 0x00, 
  0x02, 0x00, 0x40, 0x00, 0x00, 0x04, 0x00, 0x40, 0x00, 0x00, 0x06, 0x00, 
  0x20, 0x00, 0x00, 0x04, 0x00, 0x40, 0x00, 0x00, 0x06, 0x00, 0x00, 0x00, 
  0x00, 0x60, 0x00, 0xC0, 0x1F, 0x00, 0xFC, 0x01, 0xC0, 0x3F, 0x00, 0xFC, 
  0x01, 0xC0, 0x3F, 0x00, 0xFC, 0x03, 0xC0, 0x3F, 0x00, 0xFC, 0x03, 0xC0, 
  0x3F, 0x00, 0xFC, 0x03, 0x80, 0x3F, 0x00, 0xF8, 0x03, 0x00, 0x06, 0x00, 
  0x00, 0x00, 0x00, 0x60, 0x00, 0xF0, 0x7F, 0x00, 0x4F, 0x07, 0xE0, 0x7F, 
  0x00, 0x0E, 0x07, 0xF0, 0x7F, 0x00, 0x6F, 0x07, 0xE0, 0x7F, 0x00, 0x2E, 
  0x0F, 0xE0, 0x7F, 0x00, 0x1E, 0x0F, 0xE0, 0xFF, 0x00, 0x9E, 0x0F, 0x00, 
  0x06, 0x00, 0x00, 0x00, 0x00, 0x60, 0x00, 0xF8, 0xFF, 0x80, 0x03, 0x0E, 
  0xF8, 0xFF, 0x00, 0x2B, 0x0C, 0xF0, 0xFD, 0x00, 0x03, 0x0C, 0x70, 0xF7, 
  0x00, 0x03, 0x0C, 0xF0, 0xFF, 0x01, 0x07, 0x1C, 0xF0, 0xF7, 0x01, 0x07, 
  0x1C, 0x00, 0x06, 0x00, 0x00, 0x00, 0x00, 0x60, 0x00, 0xF8, 0xDD, 0x81, 
  0x13, 0x18, 0xF8, 0xF7, 0x81, 0x41, 0x18, 0xF8, 0xFF, 0x81, 0x41, 0x1E, 
  0xF8, 0xFF, 0x81, 0x81, 0x1A, 0xF8, 0xFF, 0x81, 0x01, 0x19, 0xF8, 0xFF, 
  0x81, 0x01, 0x18, 0x00, 0x06, 0x00, 0x00, 0x60, 0x0C, 0x60, 0x00, 0xFC, 
  0xFF, 0xC1, 0x80, 0x19, 0xFC, 0xFF, 0xC1, 0x21, 0x18, 0xEC, 0xFF, 0xC1, 
  0x08, 0x10, 0xFC, 0xFF, 0x83, 0x12, 0x30, 0xF8, 0xFB, 0x83, 0x11, 0x30, 
  0x78, 0xFF, 0x83, 0x09, 0x30, 0x00, 0x06, 0x00, 0x00, 0x40, 0x0C, 0x60, 
  0x00, 0xFC, 0xF7, 0xC3, 0x00, 0x30, 0xDC, 0xFD, 0xC3, 0x40, 0x31, 0xFC, 
  0xBF, 0xC3, 0x01, 0x32, 0xDC, 0xFD, 0xC3, 0x04, 0x38, 0xFC, 0xFF, 0xC3, 
  0x80, 0x30, 0xFC, 0xF7, 0xC3, 0x82, 0x26, 0x00, 0x06, 0x00, 0x00, 0x40, 
  0x0C, 0x60, 0x00, 0xBC, 0xFF, 0x43, 0x18, 0x38, 0xFC, 0x7F, 0xC3, 0x08, 
  0x34, 0x7C, 0xFE, 0x43, 0x40, 0x30, 0xFC, 0x7F, 0xC3, 0x40, 0x20, 0xEC, 
  0x7D, 0xC3, 0x20, 0x20, 0xFC, 0xDF, 0xC7, 0x20, 0x60, 0x00, 0x06, 0x00, 
  0x00, 0xC0, 0x0F, 0x60, 0x00, 0xFE, 0xFF, 0x63, 0x00, 0x30, 0xBC, 0xFF, 
  0x43, 0x00, 0x32, 0xFC, 0xFF, 0x43, 0x20, 0x30, 0xBC, 0xFF, 0xC3, 0x20, 
  0x21, 0xBC, 0xFF, 0xC3, 0x48, 0x68, 0xDC, 0xFF, 0xC7, 0x48, 0x74, 0x00, 
  0x06, 0x00, 0x00, 0x60, 0x0C, 0x60, 0x00, 0xBE, 0xBD, 0x63, 0x42, 0x32, 
  0xFE, 0xF7, 0x43, 0x12, 0x30, 0xFC, 0xF7, 0xC3, 0x84, 0x28, 0xFC, 0xEF, 
  0xC3, 0x88, 0x30, 0xFC, 0xEF, 0xC3, 0x01, 0x31, 0xFC, 0xBD, 0xC3, 0x00, 
  0x60, 0x00, 0x06, 0x00, 0x00, 0x60, 0x0C, 0x60, 0x00, 0xEC, 0xFF, 0x43, 
  0x24, 0x30, 0xFC, 0xEF, 0xC3, 0x80, 0x32, 0xEC, 0xFF, 0xC3, 0x10, 0x38, 
  0xFC, 0xFE, 0xC3, 0x00, 0x30, 0xFC, 0xFE, 0xC3, 0x24, 0x20, 0x7C, 0xFF, 
  0xC3, 0x28, 0x21, 0x00, 0x06, 0x00, 0x00, 0x40, 0x0C, 0x60, 0x00, 0xFC, 
  0xE7, 0xC1, 0x00, 0x11, 0x7C, 0xFF, 0xC3, 0x28, 0x30, 0xFC, 0x7B, 0xC3, 
  0x80, 0x31, 0xFC, 0xFF, 0xC3, 0x14, 0x32, 0xFC, 0xFF, 0xC3, 0x00, 0x39, 
  0xFC, 0xDF, 0xC3, 0x00, 0x38, 0x00, 0x06, 0x00, 0x00, 0x40, 0x0C, 0x60, 
  0x00, 0xFC, 0xFD, 0xC1, 0x81, 0x18, 0xFC, 0xFD, 0x81, 0x40, 0x18, 0xF8, 
  0xFE, 0x81, 0x21, 0x10, 0xD8, 0xEF, 0x81, 0x01, 0x19, 0xD8, 0xEF, 0x81, 
  0x81, 0x30, 0xF8, 0xEF, 0x83, 0x01, 0x30, 0x00, 0x06, 0x00, 0x00, 0x00, 
  0x00, 0x60, 0x00, 0xF8, 0xFF, 0x81, 0x09, 0x1C, 0xF8, 0xFF, 0x80, 0x03, 
  0x18, 0xF8, 0xFF, 0x81, 0x05, 0x1C, 0xF8, 0xFF, 0x81, 0x83, 0x18, 0xF0, 
  0xFF, 0x01, 0x13, 0x18, 0xF8, 0xFB, 0x01, 0x13, 0x18, 0x00, 0x06, 0x00, 
  0x00, 0x00, 0x00, 0x60, 0x00, 0xF0, 0xFF, 0x00, 0x07, 0x0E, 0xF0, 0xEF, 
  0x00, 0x07, 0x0F, 0xF0, 0xFF, 0x00, 0x07, 0x0E, 0xF0, 0xFF, 0x00, 0x07, 
  0x0E, 0xF0, 0xFF, 0x00, 0x07, 0x0E, 0xF0, 0xFF, 0x00, 0x27, 0x0D, 0x00, 
  0x06, 0x00, 0x00, 0x00, 0x00, 0x60, 0x00, 0xE0, 0x7F, 0x00, 0xFE, 0x07, 
  0xE0, 0x7F, 0x00, 0xFE, 0x07, 0xE0, 0x7F, 0x00, 0xFE, 0x07, 0xE0, 0x7F, 
  0x00, 0xFE, 0x07, 0xE0, 0x7F, 0x00, 0xFE, 0x07, 0xC0, 0x7F, 0x00, 0xFE, 
  0x07, 0x00, 0x06, 0x00, 0x00, 0x00, 0x00, 0x60, 0x00, 0xC0, 0x0F, 0x00, 
  0xFC, 0x00, 0x80, 0x1F, 0x00, 0xF8, 0x01, 0x80, 0x1F, 0x00, 0xF8, 0x01, 
  0x80, 0x1F, 0x00, 0xF8, 0x01, 0x80, 0x1F, 0x00, 0xF8, 0x01, 0x80, 0x3F, 
  0x00, 0xF0, 0x03, 0x00, 0x06, 0x00, 0x00, 0x00, 0x00, 0x60, 0x00, 0x00, 
  0x00, 0x00, 0x00, 0x00, 0x00, 0x00, 0x00, 0x00, 0x00, 0x00, 0x00, 0x00, 
  0x00, 0x00, 0x00, 0x00, 0x00, 0x00, 0x00, 0x00, 0x00, 0x00, 0x00, 0x00, 
  0x00, 0x00, 0x00, 0x00, 0x00, 0x00, 0x06, 0x00, 0x00, 0x00, 0x00, 0x60, 
  0x00, 0x00, 0x00, 0x00, 0x00, 0x00, 0x00, 0x00, 0x00, 0x00, 0x00, 0x00, 
  0x00, 0x00, 0x00, 0x00, 0x00, 0x00, 0x00, 0x00, 0x00, 0x00, 0x00, 0x00, 
  0x00, 0x00, 0x00, 0x00, 0x00, 0x00, 0x00, 0x00, 0x06, 0x00, 0x00, 0x00, 
  0x00, 0x60, 0x00, 0x00, 0x00, 0x00, 0x00, 0x00, 0x00, 0x00, 0x00, 0x00, 
  0x00, 0x00, 0x00, 0x00, 0x00, 0x00, 0x00, 0x00, 0x00, 0x00, 0x00, 0x00, 
  0x00, 0x00, 0x00, 0x00, 0x00, 0x00, 0x00, 0x00, 0x00, 0x00, 0x06, 0x00, 
  0x00, 0x00, 0x00, 0x60, 0x00, 0x00, 0x00, 0x00, 0x00, 0x00, 0x00, 0x00, 
  0x00, 0x00, 0x00, 0x00, 0x00, 0x00, 0x00, 0x00, 0x00, 0x00, 0x00, 0x00, 
  0x00, 0x00, 0x00, 0x00, 0x00, 0x00, 0x00, 0x00, 0x00, 0x00, 0x00, 0x00, 
  0x06, 0x00, 0x00, 0x00, 0x00, 0x60, 0x00, 0x00, 0x00, 0x00, 0x00, 0x00, 
  0x00, 0x00, 0x00, 0x00, 0x00, 0x00, 0x00, 0x00, 0x00, 0x00, 0x00, 0x00, 
  0x00, 0x00, 0x00, 0x00, 0x00, 0x00, 0x00, 0x00, 0x00, 0x00, 0x00, 0x00, 
  0x00, 0x00, 0x06, 0x00, 0x00, 0x00, 0x00, 0x60, 0x00, 0x00, 0x00, 0x00, 
  0x00, 0x00, 0x00, 0x00, 0x00, 0x00, 0x00, 0x00, 0x00, 0x00, 0x00, 0x00, 
  0x00, 0x00, 0x00, 0x00, 0x00, 0x00, 0x00, 0x00, 0x00, 0x00, 0x00, 0x00, 
  0x00, 0x00, 0x00, 0x00, 0x06, 0x00, 0x00, 0x00, 0x00, 0xE0, 0xFF, 0xFF, 
  0xFF, 0xFF, 0xFF, 0xFF, 0xFF, 0xFF, 0xFF, 0xFF, 0xFF, 0xFF, 0xFF, 0xFF, 
  0xFF, 0xFF, 0xFF, 0xFF, 0xFF, 0xFF, 0xFF, 0xFF, 0xFF, 0xFF, 0xFF, 0xFF, 
  0xFF, 0xFF, 0xFF, 0xFF, 0xFF, 0xFF, 0x07, 0x00, 0x00, 0x00, 0x00, 0xE0, 
  0xFF, 0xFF, 0xFF, 0xFF, 0xFF, 0xFF, 0xFF, 0xFF, 0xFF, 0xFF, 0xFF, 0xFF, 
  0xFF, 0xFF, 0xFF, 0xFF, 0xFF, 0xFF, 0xFF, 0xFF, 0xFF, 0xFF, 0xFF, 0xFF, 
  0xFF, 0xFF, 0xFF, 0xFF, 0xFF, 0xFF, 0xFF, 0xFF, 0x03, 0x00, 0x00, 0x00, 
  0x00, 0x00, 0x00, 0x00, 0x00, 0x00, 0x00, 0x00, 0x00, 0x00, 0x00, 0x00, 
  0x00, 0x00, 0x00, 0x00, 0x00, 0x00, 0x00, 0x00, 0x00, 0x00, 0x00, 0x00, 
  0x00, 0x00, 0x00, 0x00, 0x00, 0x00, 0x00, 0x00, 0x00, 0x00, 0x00, 0x00, 
  0x00, 0x00, 0x00, 0x00, 0x00, 0x00, 0x00, 0x00, 0x00, 0x00, 0x00, 0x00, 
  0x00, 0x00, 0x00, 0x00, 0x00, 0x00, 0x00, 0x00, 0x00, 0x00, 0x00, 0x00, 
  0x00, 0x00, 0x00, 0x00, 0x00, 0x00, 0x00, 0x00, 0x00, 0x00, 0x00, 0x00, 
  0x00, 0x00, 0x00, 0x00, 0x00, 0x00, 0x00, 0x00, 0x00, 0x00, 0x00, 0x00, 
  0x00, 0x00, 0x00, 0x00, 0x00, 0x00, 0x00, 0x00, 0x00, 0x00, 0x00, 0x00, 
  0x00, 0x00, 0x00, 0x00, 0x00, 0x00, 0x00, 0x00, 0x00, 0x00, 0x00, 0x00, 
  0x00, 0x00, 0x00, 0x00, 0x00, 0x00, 0x00, 0x00, 0x00, 0x00, 0x00, 0x00, 
  0x00, 0x00, 0x00, 0x00, 0x00, 0x00, 0x00, 0x00, 0x00, 0x00, 0x00, 0x00, 
  0x00, 0x00, 0x00, 0x00, 0x00, 0x00, 0x00, 0x00, 0x00, 0x00, 0x00, 0x00, 
  0x00, 0x00, 0x00, 0x00, 0x00, 0x00, 0x00, 0x00, 0x00, 0x00, 0x00, 0x00, 
  0x00, 0x00, 0x00, 0x00, 0x00, 0x00, 0x00, 0x00, 0x00, 0x00, 0x00, 0x00, 
  0x00, 0x00, 0x00, 0x00, 0x00, 0x00, 0x00, 0x00, 0x00, 0x00, 0x00, 0x00, 
  0x00, 0x00, 0x00, 0x00, 0x00, 0x00, 0x00, 0x00, 0x00, 0x00, 0x00, 0x00, 
  0x00, 0x00, 0x00, 0x00, 0x00, 0x00, 0x00, 0x00, 0x00, 0x00, 0x00, 0x00, 
  0x00, 0x00, 0x00, 0x00, 0x00, 0x00, 0x00, 0x00, 0x00, 0x00, 0x00, 0x00, 
  0x00, 0x00, 0x00, 0x00, 0x00, 0x00, 0x00, 0x00, 0x00, 0x00, 0x00, 0x00, 
  0x00, 0x00, 0x00, 0x00, 0x00, 0x00, 0x00, 0x00, 0x00, 0x00, 0x00, 0x00, 
  0x00, 0x00, 0x00, 0x00, 0x00, 0x00, 0x00, 0x00, 0x00, 0x00, 0x00, 0x00, 
  0x00, 0x00, 0x00, 0x00, 0x00, 0x00, 0x00, 0x00, 0x00, 0x00, 0x00, 0x00, 
  0x00, 0x00, 0x00, 0x00, 0x00, 0x00, 0x00, 0x00, 0x00, 0x00, 0x00, 0x00, 
  0x00, 0x00, 0x00, 0x00, 0x00, 0x00, 0x00, 0x00, 0x00, 0x00, 0x00, 0x00, 
  0x00, 0x00, 0x00, 0x00, 0x00, 0x00, 0x00, 0x00, 0x00, 0x00, 0x00, 0x00, 
  0x00, 0x00, 0x00, 0x00, 0x00, 0x00, 0x00, 0x00, 0x00, 0x00, 0x00, 0x00, 
  0x00, 0x00, 0x00, 0x00, 0x00, 0x00, 0x00, 0x00, 0x00, 0x00, 0x00, 0x00, 
  0x00, 0x00, 0x00, 0x00, 0x00, 0x00, 0x00, 0x00, 0x00, 0x00, 0x00, 0x00, 
  0x00, 0x00, 0x00, 0x00, };
